<mxfile host="app.diagrams.net" modified="2023-06-21T03:05:01.413Z" agent="Mozilla/5.0 (Windows NT 10.0; Win64; x64) AppleWebKit/537.36 (KHTML, like Gecko) Chrome/113.0.0.0 Safari/537.36" version="21.3.5" etag="ELpv52x9VRU8GdZvOc8k" type="github">
  <diagram name="第 1 页" id="Te89BDIVj_VOeVgAqUGo">
    <mxGraphModel>
      <root>
        <mxCell id="0" />
        <mxCell id="1" parent="0" />
      </root>
    </mxGraphModel>
  </diagram>
</mxfile>
